<?xml version="1.0" encoding="UTF-8" standalone="no"?>
<!DOCTYPE svg PUBLIC "-//W3C//DTD SVG 1.0//EN" "http://www.w3.org/TR/2001/PR-SVG-20010719/DTD/svg10.dtd">
<svg width="27cm" height="19cm" viewBox="279 119 522 362" xmlns="http://www.w3.org/2000/svg" xmlns:xlink="http://www.w3.org/1999/xlink">
  <g>
    <rect style="fill: #ffffff" x="280" y="120" width="260" height="360"/>
    <rect style="fill: none; fill-opacity:0; stroke-width: 2; stroke: #000000" x="280" y="120" width="260" height="360"/>
    <text font-size="12.7998" style="fill: #000000;text-anchor:middle;font-family:sans-serif;font-style:normal;font-weight:normal" x="410" y="303.881">
      <tspan x="410" y="303.881"></tspan>
    </text>
  </g>
  <g>
    <rect style="fill: #ffffff" x="300" y="240" width="220" height="160"/>
    <rect style="fill: none; fill-opacity:0; stroke-width: 2; stroke-dasharray: 4; stroke: #000000" x="300" y="240" width="220" height="160"/>
    <text font-size="12.7998" style="fill: #000000;text-anchor:middle;font-family:sans-serif;font-style:normal;font-weight:normal" x="410" y="323.881">
      <tspan x="410" y="323.881"></tspan>
    </text>
  </g>
  <g>
    <rect style="fill: #ffffff" x="620" y="240" width="180" height="140"/>
    <rect style="fill: none; fill-opacity:0; stroke-width: 2; stroke: #000000" x="620" y="240" width="180" height="140"/>
    <text font-size="12.7998" style="fill: #000000;text-anchor:middle;font-family:sans-serif;font-style:normal;font-weight:normal" x="710" y="313.881">
      <tspan x="710" y="313.881"></tspan>
    </text>
  </g>
  <g>
    <rect style="fill: #ffffff" x="340" y="280" width="160" height="40"/>
    <rect style="fill: none; fill-opacity:0; stroke-width: 2; stroke: #000000" x="340" y="280" width="160" height="40"/>
    <text font-size="12.7998" style="fill: #000000;text-anchor:middle;font-family:sans-serif;font-style:normal;font-weight:normal" x="420" y="303.881">
      <tspan x="420" y="303.881">procjonsystemd</tspan>
    </text>
  </g>
  <g>
    <rect style="fill: #ffffff" x="640" y="300" width="140" height="60"/>
    <rect style="fill: none; fill-opacity:0; stroke-width: 2; stroke: #000000" x="640" y="300" width="140" height="60"/>
    <text font-size="12.7998" style="fill: #000000;text-anchor:middle;font-family:sans-serif;font-style:normal;font-weight:normal" x="710" y="333.881">
      <tspan x="710" y="333.881">procjon</tspan>
    </text>
  </g>
  <g>
    <line style="fill: none; fill-opacity:0; stroke-width: 2; stroke: #000000" x1="500" y1="300" x2="630.319" y2="313.963"/>
    <polygon style="fill: #000000" points="637.777,314.762 627.301,318.668 630.319,313.963 628.366,308.725 "/>
    <polygon style="fill: none; fill-opacity:0; stroke-width: 2; stroke: #000000" points="637.777,314.762 627.301,318.668 630.319,313.963 628.366,308.725 "/>
  </g>
  <text font-size="12.7998" style="fill: #000000;text-anchor:start;font-family:sans-serif;font-style:normal;font-weight:normal" x="400" y="620">
    <tspan x="400" y="620"></tspan>
  </text>
  <text font-size="12.7998" style="fill: #000000;text-anchor:start;font-family:sans-serif;font-style:normal;font-weight:normal" x="410" y="300">
    <tspan x="410" y="300"></tspan>
  </text>
  <text font-size="12.7998" style="fill: #000000;text-anchor:start;font-family:sans-serif;font-style:normal;font-weight:normal" x="410" y="300">
    <tspan x="410" y="300"></tspan>
  </text>
  <text font-size="12.7998" style="fill: #000000;text-anchor:start;font-family:sans-serif;font-style:normal;font-weight:normal" x="300" y="160">
    <tspan x="300" y="160">Infrastructure to monitor</tspan>
  </text>
  <g>
    <rect style="fill: #ffffff" x="640" y="420" width="140" height="40"/>
    <rect style="fill: none; fill-opacity:0; stroke-width: 2; stroke: #000000" x="640" y="420" width="140" height="40"/>
    <text font-size="12.7998" style="fill: #000000;text-anchor:middle;font-family:sans-serif;font-style:normal;font-weight:normal" x="710" y="443.881">
      <tspan x="710" y="443.881">Slack webhooks</tspan>
    </text>
  </g>
  <g>
    <line style="fill: none; fill-opacity:0; stroke-width: 2; stroke: #000000" x1="710" y1="360" x2="710" y2="410.264"/>
    <polygon style="fill: #000000" points="710,417.764 705,407.764 710,410.264 715,407.764 "/>
    <polygon style="fill: none; fill-opacity:0; stroke-width: 2; stroke: #000000" points="710,417.764 705,407.764 710,410.264 715,407.764 "/>
  </g>
  <g>
    <rect style="fill: #ffffff" x="340" y="180" width="160" height="40"/>
    <rect style="fill: none; fill-opacity:0; stroke-width: 2; stroke: #000000" x="340" y="180" width="160" height="40"/>
    <text font-size="12.7998" style="fill: #000000;text-anchor:middle;font-family:sans-serif;font-style:normal;font-weight:normal" x="420" y="203.881">
      <tspan x="420" y="203.881">systemd</tspan>
    </text>
  </g>
  <g>
    <rect style="fill: #ffffff" x="340" y="420" width="160" height="40"/>
    <rect style="fill: none; fill-opacity:0; stroke-width: 2; stroke: #000000" x="340" y="420" width="160" height="40"/>
    <text font-size="12.7998" style="fill: #000000;text-anchor:middle;font-family:sans-serif;font-style:normal;font-weight:normal" x="420" y="443.881">
      <tspan x="420" y="443.881">elasticsearch</tspan>
    </text>
  </g>
  <g>
    <rect style="fill: #ffffff" x="340" y="340" width="160" height="40"/>
    <rect style="fill: none; fill-opacity:0; stroke-width: 2; stroke: #000000" x="340" y="340" width="160" height="40"/>
    <text font-size="12.7998" style="fill: #000000;text-anchor:middle;font-family:sans-serif;font-style:normal;font-weight:normal" x="420" y="363.881">
      <tspan x="420" y="363.881">procjonelastic</tspan>
    </text>
  </g>
  <g>
    <line style="fill: none; fill-opacity:0; stroke-width: 2; stroke: #000000" x1="500" y1="360" x2="630.319" y2="346.037"/>
    <polygon style="fill: #000000" points="637.777,345.238 628.366,351.275 630.319,346.037 627.301,341.332 "/>
    <polygon style="fill: none; fill-opacity:0; stroke-width: 2; stroke: #000000" points="637.777,345.238 628.366,351.275 630.319,346.037 627.301,341.332 "/>
  </g>
  <g>
    <line style="fill: none; fill-opacity:0; stroke-width: 2; stroke: #000000" x1="420" y1="389.736" x2="420" y2="420"/>
    <polygon style="fill: #000000" points="420,382.236 425,392.236 420,389.736 415,392.236 "/>
    <polygon style="fill: none; fill-opacity:0; stroke-width: 2; stroke: #000000" points="420,382.236 425,392.236 420,389.736 415,392.236 "/>
  </g>
  <g>
    <line style="fill: none; fill-opacity:0; stroke-width: 2; stroke: #000000" x1="420" y1="270.264" x2="420" y2="220"/>
    <polygon style="fill: #000000" points="420,277.764 415,267.764 420,270.264 425,267.764 "/>
    <polygon style="fill: none; fill-opacity:0; stroke-width: 2; stroke: #000000" points="420,277.764 415,267.764 420,270.264 425,267.764 "/>
  </g>
  <text font-size="12.7998" style="fill: #000000;text-anchor:start;font-family:sans-serif;font-style:normal;font-weight:normal" x="560" y="280">
    <tspan x="560" y="280">gRPC</tspan>
  </text>
  <text font-size="12.7998" style="fill: #000000;text-anchor:start;font-family:sans-serif;font-style:normal;font-weight:normal" x="640" y="280">
    <tspan x="640" y="280">Monitoring server</tspan>
  </text>
  <text font-size="12.7998" style="fill: #000000;text-anchor:start;font-family:sans-serif;font-style:normal;font-weight:normal" x="320" y="260">
    <tspan x="320" y="260">procjonagents</tspan>
  </text>
</svg>
