<?xml version="1.0" encoding="UTF-8" standalone="no"?>
<!DOCTYPE svg PUBLIC "-//W3C//DTD SVG 1.0//EN" "http://www.w3.org/TR/2001/PR-SVG-20010719/DTD/svg10.dtd">
<svg width="25cm" height="14cm" viewBox="299 359 482 262" xmlns="http://www.w3.org/2000/svg" xmlns:xlink="http://www.w3.org/1999/xlink">
  <g>
    <rect style="fill: #ffffff" x="300" y="360" width="200" height="260"/>
    <rect style="fill: none; fill-opacity:0; stroke-width: 2; stroke: #000000" x="300" y="360" width="200" height="260"/>
    <text font-size="12.7998" style="fill: #000000;text-anchor:middle;font-family:sans-serif;font-style:normal;font-weight:normal" x="400" y="493.881">
      <tspan x="400" y="493.881"></tspan>
    </text>
  </g>
  <g>
    <rect style="fill: #ffffff" x="580" y="440" width="200" height="100"/>
    <rect style="fill: none; fill-opacity:0; stroke-width: 2; stroke: #000000" x="580" y="440" width="200" height="100"/>
    <text font-size="12.7998" style="fill: #000000;text-anchor:middle;font-family:sans-serif;font-style:normal;font-weight:normal" x="680" y="493.881">
      <tspan x="680" y="493.881"></tspan>
    </text>
  </g>
  <g>
    <rect style="fill: #ffffff" x="320" y="480" width="160" height="40"/>
    <rect style="fill: none; fill-opacity:0; stroke-width: 2; stroke: #000000" x="320" y="480" width="160" height="40"/>
    <text font-size="12.7998" style="fill: #000000;text-anchor:middle;font-family:sans-serif;font-style:normal;font-weight:normal" x="400" y="503.881">
      <tspan x="400" y="503.881">procjonagent</tspan>
    </text>
  </g>
  <g>
    <rect style="fill: #ffffff" x="600" y="480" width="160" height="40"/>
    <rect style="fill: none; fill-opacity:0; stroke-width: 2; stroke: #000000" x="600" y="480" width="160" height="40"/>
    <text font-size="12.7998" style="fill: #000000;text-anchor:middle;font-family:sans-serif;font-style:normal;font-weight:normal" x="680" y="503.881">
      <tspan x="680" y="503.881">procjon</tspan>
    </text>
  </g>
  <g>
    <rect style="fill: #ffffff" x="580" y="560" width="200" height="60"/>
    <rect style="fill: none; fill-opacity:0; stroke-width: 2; stroke: #000000" x="580" y="560" width="200" height="60"/>
    <text font-size="12.7998" style="fill: #000000;text-anchor:middle;font-family:sans-serif;font-style:normal;font-weight:normal" x="680" y="593.881">
      <tspan x="680" y="593.881">Slack webhooks</tspan>
    </text>
  </g>
  <text font-size="12.7998" style="fill: #000000;text-anchor:start;font-family:sans-serif;font-style:normal;font-weight:normal" x="320" y="380">
    <tspan x="320" y="380">Monitored infrastructure</tspan>
  </text>
  <text font-size="12.7998" style="fill: #000000;text-anchor:start;font-family:sans-serif;font-style:normal;font-weight:normal" x="600" y="460">
    <tspan x="600" y="460">Monitoring infrastructure</tspan>
  </text>
  <text font-size="12.7998" style="fill: #000000;text-anchor:start;font-family:sans-serif;font-style:normal;font-weight:normal" x="160" y="180">
    <tspan x="160" y="180"></tspan>
  </text>
  <g>
    <rect style="fill: #ffffff" x="320" y="560" width="160" height="40"/>
    <rect style="fill: none; fill-opacity:0; stroke-width: 2; stroke: #000000" x="320" y="560" width="160" height="40"/>
    <text font-size="12.7998" style="fill: #000000;text-anchor:middle;font-family:sans-serif;font-style:normal;font-weight:normal" x="400" y="583.881">
      <tspan x="400" y="583.881">elasticsearch node</tspan>
    </text>
  </g>
  <g>
    <rect style="fill: #ffffff" x="320" y="400" width="160" height="40"/>
    <rect style="fill: none; fill-opacity:0; stroke-width: 2; stroke: #000000" x="320" y="400" width="160" height="40"/>
    <text font-size="12.7998" style="fill: #000000;text-anchor:middle;font-family:sans-serif;font-style:normal;font-weight:normal" x="400" y="423.881">
      <tspan x="400" y="423.881">systemd unit</tspan>
    </text>
  </g>
  <g>
    <line style="fill: none; fill-opacity:0; stroke-width: 2; stroke: #000000" x1="680" y1="520" x2="680" y2="550.264"/>
    <polygon style="fill: #000000" points="680,557.764 675,547.764 680,550.264 685,547.764 "/>
    <polygon style="fill: none; fill-opacity:0; stroke-width: 2; stroke: #000000" points="680,557.764 675,547.764 680,550.264 685,547.764 "/>
  </g>
  <g>
    <line style="fill: none; fill-opacity:0; stroke-width: 2; stroke: #000000" x1="480" y1="500" x2="590.264" y2="500"/>
    <polygon style="fill: #000000" points="597.764,500 587.764,505 590.264,500 587.764,495 "/>
    <polygon style="fill: none; fill-opacity:0; stroke-width: 2; stroke: #000000" points="597.764,500 587.764,505 590.264,500 587.764,495 "/>
  </g>
  <g>
    <line style="fill: none; fill-opacity:0; stroke-width: 2; stroke: #000000" x1="400" y1="480" x2="400" y2="449.736"/>
    <polygon style="fill: #000000" points="400,442.236 405,452.236 400,449.736 395,452.236 "/>
    <polygon style="fill: none; fill-opacity:0; stroke-width: 2; stroke: #000000" points="400,442.236 405,452.236 400,449.736 395,452.236 "/>
  </g>
  <g>
    <line style="fill: none; fill-opacity:0; stroke-width: 2; stroke: #000000" x1="400" y1="520" x2="400" y2="550.264"/>
    <polygon style="fill: #000000" points="400,557.764 395,547.764 400,550.264 405,547.764 "/>
    <polygon style="fill: none; fill-opacity:0; stroke-width: 2; stroke: #000000" points="400,557.764 395,547.764 400,550.264 405,547.764 "/>
  </g>
  <text font-size="12.7998" style="fill: #000000;text-anchor:start;font-family:sans-serif;font-style:normal;font-weight:normal" x="520" y="520">
    <tspan x="520" y="520">gRPC</tspan>
  </text>
</svg>
